<svg width="600" height="600" style="background-color:#ecdfc8" xmlns="http://www.w3.org/2000/svg">
 <g>
  <title>Dummy Icon</title>
  <ellipse style="fill: rgb(236, 179, 144); stroke: rgb(223, 120, 97); stroke-width: 20px;" cx="323.012" cy="503.561" rx="209.247" ry="310.893" transform="matrix(1, 0, 0.00694, 1, -26.506737, 205.331741)"></ellipse>
  <circle style="paint-order: fill; fill: rgb(236, 179, 144); stroke: rgb(223, 120, 97); stroke-width: 20px;" cx="300" cy="380.869" r="133.507"></circle>
  <path style="fill: rgb(236, 223, 200); stroke: rgb(223, 120, 97); stroke-width: 20px;" d="M 432.472 347 C 432.472 347 450.49 253.597 448.488 242.586 C 446.486 231.575 425.465 223.876 425.465 223.876 C 416.154 207.242 191.909 214.194 180.219 222.875 C 168.529 231.556 163.202 243.896 163.202 243.896 C 163.202 243.896 168.207 342.995 170.209 347 C 172.211 351.005 168.207 322.975 240.279 318.971 C 312.351 314.967 344.384 313.966 375.415 320.973 C 406.446 327.98 430.47 347 430.47 347 L 432.472 347 Z"></path>
  <path style="fill: rgb(236, 223, 200); stroke: rgb(223, 120, 97); stroke-width: 20px;" d="M 448.488 238.3 C 448.488 238.3 471.052 227.289 484.525 202.264 C 497.998 177.239 494.995 176.029 500 147 C 505.005 117.971 495.996 82.035 463.964 69.022 C 431.932 56.009 400 66.127 376.416 69.13 C 352.832 72.133 318.358 80.141 318.358 80.141 C 318.358 80.141 306.346 54.115 258.298 67.128 C 210.25 80.141 189.171 90.43 183.222 102.164 C 177.273 113.898 179.218 137.199 179.218 137.199 C 179.218 137.199 142.181 126.188 130.169 162.224 C 118.157 198.26 129.168 210.272 137.176 219.281 C 145.184 228.29 165.204 239.301 165.204 239.301 C 165.204 239.301 223.262 215.277 305.345 217.279 C 387.428 219.281 439.479 236.298 439.479 236.298 L 448.488 238.3 Z"></path>
  <path style="stroke-width: 3px; fill: rgb(236, 179, 144); stroke: rgb(236, 179, 144);" d="M 400 215.457 C 400 215.457 416.456 197.815 423.463 182.8 C 430.47 167.785 438.478 138.756 438.478 138.756 C 438.478 138.756 444.484 172.79 434.474 197.815 C 424.464 222.84 424.018 220.633 424.018 220.633 L 400 215.457 Z"></path>
  <path style="stroke-width: 3px; stroke: rgb(236, 179, 144); fill: rgb(236, 179, 144);" d="M 310.76 206.07 C 310.76 206.07 298.338 169.787 301.341 159.777 C 304.344 149.767 304.344 136.754 304.344 136.754 C 304.344 136.754 287.057 181.289 289.329 191.809 C 291.601 202.329 292.923 205.662 292.923 205.662 L 310.76 206.07 Z"></path>
  <path style="stroke-width: 3px; stroke: rgb(236, 179, 144); fill: rgb(236, 179, 144);" d="M 190.52 109.505 C 190.52 109.505 188.989 129.956 200 152.979 C 211.011 176.002 214.231 185.258 214.231 185.258 L 171.967 147 C 172.882 146.768 191.509 152.603 191.509 152.603 C 191.509 152.603 190.295 143.387 190.256 143.102 C 189.201 135.309 189.846 112.061 190.52 109.505 Z"></path>
  <path style="stroke-width: 3px; fill: rgb(236, 179, 144); stroke: rgb(236, 179, 144);" d="M 303.745 79.872 C 303.745 79.872 298.338 92.71 297.337 102.72 C 296.336 112.73 296.336 112.73 296.336 112.73 C 296.336 112.73 306.404 92.111 310.408 92.111 C 314.412 92.111 302.744 77.87 303.745 79.872 Z"></path>
 </g>
</svg>